<?xml version="1.0" encoding="UTF-8" standalone="no"?>
<!-- Created with Inkscape (http://www.inkscape.org/) -->

<svg
   xmlns:dc="http://purl.org/dc/elements/1.1/"
   xmlns:cc="http://creativecommons.org/ns#"
   xmlns:rdf="http://www.w3.org/1999/02/22-rdf-syntax-ns#"
   xmlns:svg="http://www.w3.org/2000/svg"
   xmlns="http://www.w3.org/2000/svg"
   xmlns:sodipodi="http://sodipodi.sourceforge.net/DTD/sodipodi-0.dtd"
   xmlns:inkscape="http://www.inkscape.org/namespaces/inkscape"
   id="svg2867"
   version="1.1"
   inkscape:version="0.48.3.1 r9886"
   width="1069"
   height="308"
   sodipodi:docname="logo.svg">
  <metadata
     id="metadata2873">
    <rdf:RDF>
      <cc:Work
         rdf:about="">
        <dc:format>image/svg+xml</dc:format>
        <dc:type
           rdf:resource="http://purl.org/dc/dcmitype/StillImage" />
        <dc:title />
      </cc:Work>
    </rdf:RDF>
  </metadata>
  <defs
     id="defs2871">
    <inkscape:perspective
       sodipodi:type="inkscape:persp3d"
       inkscape:vp_x="0 : 0.5 : 1"
       inkscape:vp_y="0 : 1000 : 0"
       inkscape:vp_z="1 : 0.5 : 1"
       inkscape:persp3d-origin="0.5 : 0.33333333 : 1"
       id="perspective2875" />
  </defs>
  <sodipodi:namedview
     pagecolor="#ffffff"
     bordercolor="#666666"
     borderopacity="1"
     objecttolerance="10"
     gridtolerance="10"
     guidetolerance="10"
     inkscape:pageopacity="0"
     inkscape:pageshadow="2"
     inkscape:window-width="1680"
     inkscape:window-height="1022"
     id="namedview2869"
     showgrid="false"
     inkscape:zoom="0.84924784"
     inkscape:cx="690.6979"
     inkscape:cy="432.07209"
     inkscape:window-x="0"
     inkscape:window-y="24"
     inkscape:window-maximized="0"
     inkscape:current-layer="svg2867" />
  <path
     style="fill:#0084ff;fill-opacity:1"
     d="m 119.03257,297.69419 c -3.85,-0.74414 -24.302807,-4.37099 -45.450607,-8.05967 -21.1479,-3.68868 -40.788,-7.58122 -43.6449,-8.65009 -10.9863,-4.11053 -17.3864,-11.31959 -19.5454,-22.0162 -1.0599999,-5.25196 -0.5039999,-7.66506 27.0425,-117.36221 15.4686,-61.6 28.9063,-113.7959 29.8616,-115.9909 2.3246,-5.34152 6.7152,-10.20237 11.3523,-12.56801 5.1517,-2.62825 13.6048,-2.53864 53.884507,0.5712 67.97152,5.24781 67.61445,5.18728 74.63802,12.65239 7.59918,8.0769 8.55539,14.38308 4.90306,32.33532 -3.25633,16.0058 -44.65288,195.40796 -48.08518,208.38912 -3.0657,11.59478 -6.5354,18.11805 -12.4222,23.35465 -8.6874,7.72785 -18.7717,10.00435 -32.5337,7.3444 z m 17.2494,-9.27019 c 2.0628,-0.977 5.5877,-3.61098 7.833,-5.85327 5.1056,-5.09872 6.2174,-8.95671 21.4595,-74.46471 6.0787,-26.125 17.331,-74.33561 25.0051,-107.13469 7.67413,-32.79907 13.95297,-60.83392 13.95297,-62.29966 0,-5.55648 -5.16298,-11.887 -11.08987,-13.59768 -4.1569,-1.19982 -91.32091,-8.96797 -100.626707,-8.96797 -7.8907,0 -14.1151,2.58376 -17.7121,7.35237 -3.069,4.06865 -3.6828,6.24762 -21.5896,76.64763 -32.9666,129.60704 -37.9813,150.04823 -37.9598,154.73303 0.046,9.88788 6.8081,17.99907 16.7787,20.12492 2.5847,0.55108 22.9244,4.16047 45.1994,8.02086 22.275,3.8604 41.625007,7.22993 43.000007,7.48784 4.2512,0.7974 11.8188,-0.18699 15.7494,-2.04867 z m -24.8178,-2.84752 C 84.001663,281.29501 27.706763,270.77643 25.874163,269.5842 c -1.1871,-0.7723 -3.3858,-3.91296 -4.8859,-6.97925 -2.3105,-4.72247 -2.641,-6.41459 -2.1611,-11.06477 0.7688,-7.44928 56.5251,-217.57984 58.1897,-219.30166 1.1173,-1.15567 5.4806,-0.95269 28.168907,1.31042 51.6791,5.1549 90.85456,9.66656 91.75597,10.56713 0.5455,0.54499 -1.53928,11.82518 -5.21167,28.19915 -46.2616,206.26255 -43.9789,196.3583 -46.3298,201.013 -2.4764,4.90305 -7.4762,10.52398 -10.9665,12.32888 -3.3944,1.75532 -11.373,1.72732 -22.9696,-0.0806 z M 87.782563,272.15199 c 2.1161,-2.36813 2.75,-4.09068 2.75,-7.47285 0,-9.04885 -10.1868,-12.60062 -17.1116,-5.96622 -2.3688,2.26941 -2.8884,3.5988 -2.8884,7.38906 0,7.06345 3.6361,10.38454 10.5,9.59035 2.8471,-0.32943 4.7926,-1.34981 6.75,-3.54034 z M 163.19847,167.10602 C 187.85697,56.54575 189.15697,50.33044 187.88927,49.06275 186.34407,47.51757 93.197263,37.72773 85.431763,38.29436 l -4.2713,0.31166 -2.3342,8.5 c -5.4094,19.6981 -30.9407,116.47979 -40.3304,152.88074 -7.9335,30.75603 -9.8743,39.55622 -8.8618,40.182 1.5885,0.98174 3.8534,1.37786 56.869,9.94613 23.391207,3.78043 43.654507,7.07375 45.029507,7.31849 1.375,0.24473 4.5208,0.3837 6.9907,0.30881 l 4.4907,-0.13617 20.1845,-90.5 z m -90.045607,28.17495 c -22.287,-11.34531 -23.1315,-11.88311 -23.4299,-14.92086 -0.5528,-5.62833 14.8665,-62.09134 17.4778,-64.00075 2.0236,-1.47966 7.9546,-1.67263 8.8112,-0.28667 1.9655,3.18027 34.232007,15.03333 40.923807,15.03333 1.9782,0 3.5968,0.4454 3.5968,0.98977 0,1.31671 -8.5497,14.61387 -9.9545,15.48212 -0.7705,0.47618 -1.018,-1.36733 -0.8235,-6.13388 l 0.278,-6.81466 -7.50001,-2.69895 c -9.506597,-3.42106 -10.513897,-3.42737 -11.867897,-0.0744 -2.6719,6.61632 -14.3459,50.94451 -14.4819,54.99016 l -0.1502,4.46712 8.3206,4.52571 c 5.6702,3.08408 8.6464,4.19994 9.3434,3.50302 1.0722,-1.07225 6.709397,-19.84296 8.903297,-29.64615 1.23611,-5.52361 3.61181,-8.58986 6.65521,-8.58986 1.9378,0 1.6129,2.13755 -2.648,17.42026 -2.1591,7.74386 -4.24681,15.83491 -4.63951,17.98012 l -0.714,3.90038 3.88951,-0.54489 c 2.1392,-0.2997 6.4479,-1.51384 9.575,-2.69809 5.3029,-2.00832 5.7888,-2.4696 7.222,-6.85549 2.2103,-6.76404 13.5925,-53.0924 13.5925,-55.32482 0,-2.26913 1.5917,-2.36382 6.3457,-0.37747 1.9745,0.825 4.7295,1.5 6.1222,1.5 1.3926,0 2.5321,0.25698 2.5321,0.57107 0,0.31409 -2.925,11.72327 -6.5,25.35373 -3.575,13.63046 -6.5,25.29848 -6.5,25.92893 0,1.77517 4.1571,1.34788 7.6586,-0.78719 3.675,-2.24086 3.7794,-2.54904 12.382,-36.5301 3.1974,-12.62996 5.5619,-23.3705 5.2545,-23.86786 -0.3073,-0.49735 -2.5411,-0.63259 -4.9638,-0.30052 -4.8009,0.65804 -4.8093,0.64968 -5.692,-5.67215 -0.4112,-2.94536 -0.079,-4.25582 1.4699,-5.80516 l 2.0011,-2.00107 3.4796,3.05516 c 1.9138,1.68034 4.3319,3.05516 5.3734,3.05516 3.0394,0 5.129,2.76471 4.4005,5.82233 -2.1579,9.05762 -14.6953,56.48252 -15.9581,60.36481 l -1.5247,4.68715 -10.6905,3.49878 c -16.084,5.26395 -29.3881,9.39754 -37.32771,11.59773 l -7.122197,1.97367 -23.1203,-11.76952 z m -5.5972,-30.92495 c 8.7188,-31.00004 10.6948,-38.69213 10.2612,-39.94376 -0.2274,-0.65657 -2.0057,-1.71924 -3.9517,-2.36148 -2.845,-0.93894 -3.7862,-0.90097 -4.8038,0.19376 -1.1355,1.22143 -15.5288,53.68163 -15.5288,56.59851 0,1.37452 4.7051,4.16331 7.1248,4.22293 1.2621,0.0311 2.8018,-4.14488 6.8983,-18.70996 z m 49.237107,-0.52101 c -0.5224,-0.67595 -1.2494,-2.06568 -1.6156,-3.0883 -0.5441,-1.51951 -1.3035,-1.73967 -4.1552,-1.20469 -2.7887,0.52317 -3.4894,0.33762 -3.4894,-0.92393 0,-2.39315 4.1912,-10.05494 10.6736,-19.51207 5.3059,-7.74066 6.1467,-8.52685 9.412,-8.80056 5.7547,-0.4824 6.5299,1.41595 3.8856,9.51537 -3.0749,9.41803 -9.8496,23.14972 -11.9851,24.2926 -1.2153,0.65041 -2.076,0.5625 -2.7259,-0.27842 z m 29.1716,-30.69721 c -0.5326,-0.53253 -5.3998,-2.11963 -10.816,-3.52689 -12.4965,-3.24687 -13.6158,-3.86116 -13.6158,-7.47269 0,-2.91214 2.7768,-4.9062 4.9563,-3.55919 0.5358,0.33117 5.8148,0.10973 11.731,-0.49206 12.9704,-1.31935 13.8105,-0.81139 12.9637,7.83812 -0.6624,6.76524 -2.7633,9.66864 -5.2192,7.21271 z M 85.728063,119.69815 c -3.4674,-1.81556 -6.787,-3.78357 -7.3768,-4.37336 -1.5181,-1.51814 -0.2771,-5.52054 2.8722,-9.26325 2.5734,-3.0584 2.9401,-3.17608 8.3637,-2.68429 6.2812,0.56957 14.205307,3.68484 17.682907,6.95193 2.5076,2.35571 3.0923,7.86433 1.0125,9.53759 -1.4294,1.14993 -10.759707,3.26568 -14.049207,3.18583 -1.2105,-0.0294 -5.0378,-1.53889 -8.5053,-3.35445 z m 29.304507,1.68426 c -5.103,-1.25433 -5.7041,-4.00899 -1.9491,-8.932 1.9633,-2.57407 3.2877,-3.34086 5.75,-3.32908 4.6657,0.0223 6.5493,1.4427 4.915,3.70622 -0.7062,0.97816 -2.012,3.46597 -2.9017,5.52847 -1.6129,3.73912 -2.0304,3.95646 -5.8142,3.02639 z m 9.5,-5.84311 c 0,-3.89088 10.4101,-13.54091 19.7448,-18.30311 4.947,-2.52376 11.4525,-2.80223 13.3055,-0.56955 0.7123,0.85834 1.4948,3.9676 1.7388,6.90946 0.4401,5.30703 0.4109,5.37245 -3.7234,8.36738 -5.1016,3.69552 -11.528,5.16254 -22.6149,5.16254 -7.0051,0 -8.4508,-0.26802 -8.4508,-1.56672 z m -18.5,-7.35597 c -4.38261,-3.10452 -12.197407,-6.07731 -15.976007,-6.07731 -4.3998,0 -4.0808,-2.19865 0.9628,-6.63685 10.449297,-9.19486 16.670207,-10.45104 19.752007,-3.98847 2.5068,5.25686 4.067,15.18532 2.7678,17.61301 -1.4167,2.64712 -2.7052,2.49086 -7.5066,-0.91038 z m 35.5,-75.08948 c -17.7363,-1.44394 -22.4415,-2.84642 -20.4361,-6.09132 0.8822,-1.4273 23.7138,-0.56254 29.6499,1.12301 3.9589,1.1241 5.5578,2.64832 4.149,3.95522 -1.582,1.46767 -4.7909,1.71095 -13.3628,1.01309 z m 863.49993,242.37137 c -21.29182,-1.78493 -38.35673,-13.32962 -47.09301,-31.8592 -4.7001,-9.96887 -6.40967,-19.78628 -6.39217,-36.70784 0.0177,-17.11382 1.34905,-23.60677 7.50519,-36.6025 11.64214,-24.57682 35.85792,-36.6675 61.38689,-30.64988 18.0472,4.25402 31.3733,18.1322 36.4837,37.99498 3.6662,14.24986 4.4668,38.66621 1.3332,40.65713 -0.6731,0.42762 -15.3988,0.78933 -32.7238,0.8038 -17.325,0.0145 -33.23552,0.31305 -35.35676,0.66349 -3.69921,0.61113 -3.83528,0.76974 -3.33028,3.88169 0.28958,1.78448 1.69041,5.08826 3.11296,7.34171 5.50909,8.72696 16.74068,12.78321 32.57408,11.76403 5.225,-0.33634 11.975,-1.28907 15,-2.11719 7.2939,-1.99678 10.7213,-1.93289 11.8333,0.22058 1.3034,2.52393 4.4413,24.09203 3.7625,25.86092 -1.8588,4.84405 -31.1386,10.16983 -48.0958,8.74828 z m 29.0225,-5.89511 c 4.3876,-0.90601 9.5065,-2.28589 11.3753,-3.06641 l 3.3978,-1.41912 -0.5971,-8.46023 c -0.7625,-10.8049 -1.8231,-12.9416 -6.0453,-12.17932 -12.388,2.23653 -16.2383,2.65006 -24.7217,2.6552 -5.5828,0.003 -11.6586,-0.61491 -14.5863,-1.48435 -10.0867,-2.99543 -18.29735,-11.40496 -20.31836,-20.8105 -1.03768,-4.82924 -0.96373,-5.32393 1.03878,-6.94936 1.95848,-1.58968 5.28351,-1.7514 36.29518,-1.76531 19.9657,-0.009 34.7619,-0.41214 35.6392,-0.97113 1.2038,-0.76706 1.4472,-2.97296 1.2327,-11.17015 -0.8777,-33.53287 -13.727,-54.04871 -37.7743,-60.31222 -27.02305,-7.03863 -53.54693,11.15745 -61.53092,42.21189 -5.70101,22.17461 -2.22658,47.32243 8.78781,63.6059 12.95664,19.15485 37.37611,26.39893 67.80721,20.11511 z m -49.77246,-73.54419 c -3.5444,-2.06442 -1.31324,-14.87053 3.74661,-21.50434 1.46586,-1.92185 4.50843,-4.71406 6.76127,-6.20491 3.61388,-2.39156 5.04641,-2.70834 12.16908,-2.691 6.6647,0.0162 8.812,0.4395 12.3093,2.42642 4.3561,2.47487 8.2907,7.27675 10.2865,12.55393 1.7839,4.71687 1.7697,14.37989 -0.023,15.51745 -2.0427,1.29632 -43.00847,1.208 -45.24996,-0.0976 z m 35.74996,-2.79411 7,-0.62579 -0.1796,-4.15181 c -0.6116,-14.14128 -15.4533,-23.335 -27.92434,-17.29785 -6.49519,3.14426 -12.39602,12.43529 -12.39602,19.51789 0,1.9989 0.58311,2.36929 4.25,2.69956 6.77627,0.61033 21.64176,0.53816 29.24996,-0.142 z m -252.17509,78.64985 c -1.12672,-1.74245 -1.68848,-71.70012 -0.81464,-101.44995 l 0.71007,-24.1743 2.63985,-1.04706 c 4.68225,-1.85716 22.50507,-5.04776 33.21811,-5.94664 16.91955,-1.41964 27.41277,0.35738 37.31287,6.31892 3.21815,1.93786 6.45617,3.52339 7.1956,3.52339 0.73943,0 4.17241,-1.55279 7.62885,-3.45064 8.35673,-4.5885 16.38884,-6.55188 26.74452,-6.53749 23.58548,0.0328 37.8273,11.67063 42.52315,34.74824 1.87624,9.22072 2.68174,42.51549 1.77189,73.23989 l -0.75514,25.5 -15.5,0 -15.5,0 -0.70435,-38 c -0.38739,-20.9 -1.18544,-41.3688 -1.77343,-45.48622 -1.37317,-9.61551 -4.26261,-14.17636 -10.48721,-16.55356 -4.35068,-1.66154 -4.88737,-1.66168 -11.0152,-0.003 -3.54293,0.95902 -6.94809,2.35384 -7.56701,3.0996 -0.82119,0.98947 -0.92811,13.62686 -0.39565,46.76009 0.40131,24.97229 0.43155,46.59191 0.0672,48.0436 l -0.66245,2.63949 -15.37396,0 c -13.09655,0 -15.46388,-0.23432 -15.98095,-1.58179 -0.33385,-0.86998 -0.62908,-14.48248 -0.65607,-30.25 -0.0685,-39.99292 -1.06247,-54.80384 -4.08736,-60.90272 -3.34443,-6.74316 -8.97243,-9.58682 -17.70581,-8.9462 -3.48824,0.25587 -6.77572,0.89868 -7.30551,1.42847 -0.57228,0.57228 -1.24514,21.01165 -1.65775,50.35775 l -0.69449,49.39449 -15.17513,0.27564 c -11.45225,0.20802 -15.3775,-0.0373 -16,-1 z m 27.47513,-3.97564 c 0.90018,-0.90018 1.2,-13.25885 1.2,-49.46482 l 0,-48.26481 2.25,-1.27621 c 1.41863,-0.80466 5.79767,-1.25326 11.85129,-1.21409 12.31025,0.0797 15.20822,1.56103 19.3845,9.90892 l 2.9858,5.96823 0.37322,41.02139 c 0.20527,22.56177 0.79,41.80889 1.29939,42.77139 0.79945,1.51057 2.48993,1.75 12.3558,1.75 10.27669,0 11.53405,-0.19512 12.46482,-1.93426 1.40413,-2.62365 1.35105,-57.17215 -0.0736,-75.66762 -0.60985,-7.91716 -0.83973,-15.46699 -0.51084,-16.7774 1.19152,-4.74736 16.17436,-8.89562 24.26191,-6.71733 5.02273,1.35282 10.75292,7.29854 12.31271,12.77583 0.65095,2.28583 1.34477,20.39676 1.72705,45.08154 0.47732,30.82209 0.95083,41.51956 1.87162,42.28375 0.7283,0.60444 5.87925,0.9069 12.5895,0.73924 l 11.35683,-0.28375 0.65003,-23 c 0.78239,-27.68358 -0.52183,-63.49887 -2.63216,-72.28148 -4.67423,-19.45289 -18.20547,-30.22658 -37.94601,-30.21294 -10.0099,0.007 -13.5668,0.93003 -25.7044,6.67106 l -9.63254,4.55615 -8.36746,-4.55836 c -10.17125,-5.54101 -15.46425,-6.82429 -28.02013,-6.79344 -14.32363,0.0352 -36.42005,4.26307 -39.76545,7.60864 -1.40532,1.40539 -1.58188,7.91225 -1.58188,58.29617 0,31.19281 0.32338,57.5017 0.71862,58.4642 0.62475,1.52143 2.19862,1.75 12.05,1.75 7.47996,0 11.73925,-0.40787 12.53138,-1.2 z M 545.64653,222.58275 c -12.23481,-3.16095 -14.11399,-4.41112 -14.11399,-9.3897 0,-4.83602 3.72867,-23.2157 4.95943,-24.44646 0.55045,-0.55045 4.61035,0.16637 10.2267,1.80563 6.3312,1.8479 12.70209,2.89499 19.89414,3.2697 12.21085,0.63619 17.02891,-0.46535 18.7724,-4.29188 3.21165,-7.04881 -0.10351,-10.46507 -19.57603,-20.17299 -18.31859,-9.13264 -23.83852,-13.58436 -28.44411,-22.93964 -3.07112,-6.23833 -3.22966,-7.1254 -3.25007,-18.18482 -0.0193,-10.47499 0.23903,-12.18868 2.60845,-17.30172 7.23262,-15.60749 20.84889,-22.82485 43.06135,-22.82485 14.96993,0 32.72009,3.8796 34.09059,7.45108 0.73657,1.91945 -4.08747,23.72211 -5.57867,25.21331 -1.04243,1.04244 -2.30735,1.00698 -6.773,-0.18985 -16.66088,-4.46524 -26.51613,-4.12886 -31.74118,1.08341 -6.73801,6.72152 -2.88375,11.54943 17.09715,21.41618 18.47169,9.12149 24.44526,13.82748 28.81246,22.69852 3.24806,6.59774 3.34039,7.13139 3.34039,19.30632 0,10.75464 -0.30744,13.18651 -2.17927,17.23826 -5.50717,11.92076 -17.9413,20.0221 -33.47075,21.80757 -14.53286,1.67089 -27.30462,1.14694 -37.73599,-1.54807 z m 101.08927,-0.73182 c -2.93184,-3.53265 -2.56926,-183.23605 0.37565,-186.18096 2.27508,-2.27508 30.26967,-6.81306 30.56011,-4.95385 0.0765,0.48944 0.41396,13.9399 0.75,29.8899 l 0.61098,29 14.5,-0.32979 c 12.55282,-0.28551 15.40104,-0.0468 21.20976,1.77775 10.74449,3.37486 18.61282,10.17722 23.77264,20.55204 5.97854,12.02101 6.21878,14.44138 6.37518,64.22611 0.1235,39.31549 -0.0568,45.46423 -1.35758,46.29047 -2.34706,1.49085 -28.70872,1.25409 -29.68202,-0.26658 -0.44004,-0.6875 -1.11705,-18.8 -1.50449,-40.25 -0.38743,-21.45 -0.98351,-41.33979 -1.32461,-44.19954 -0.71745,-6.01499 -3.57786,-10.75959 -8.51268,-14.12008 -3.14093,-2.1389 -4.31153,-2.3289 -12.13724,-1.97007 -4.76357,0.21842 -9.30795,0.93403 -10.09862,1.59023 -1.19928,0.99531 -1.52793,9.15389 -1.98253,49.21556 -0.40654,35.82672 -0.85702,48.39851 -1.77381,49.50318 -1.6441,1.98102 -28.15719,2.18189 -29.78074,0.22563 z m -320.81373,-0.51022 c -0.61075,-0.40408 -1.81447,-2.10951 -2.67493,-3.78986 -4.68047,-9.14029 -35.7146,-116.33277 -35.7146,-123.35892 0,-1.02956 0.7118,-2.14508 1.58179,-2.47892 3.14575,-1.20714 28.96388,-0.6646 30.59948,0.64301 1.83337,1.46572 1.78755,1.28358 10.25043,40.75 7.37631,34.39925 8.28478,38 9.58737,38 1.28258,0 2.98956,-6.26219 10.49452,-38.5 7.22475,-31.03412 9.1842,-38.40262 10.70338,-40.25 1.19732,-1.456 19.44252,-1.75181 21.65372,-0.35108 0.82174,0.52055 3.71134,11.62821 7.21503,27.73469 11.46905,52.72317 12.53594,55.94207 15.33294,46.26077 0.85716,-2.96691 4.03463,-17.01157 7.06105,-31.21036 7.07607,-33.19823 9.26653,-41.90426 10.78606,-42.86943 0.67882,-0.43118 7.59163,-0.79086 15.36179,-0.79928 11.12604,-0.0121 14.38286,0.29231 15.32922,1.43262 0.95255,1.14774 0.47512,4.41297 -2.30291,15.75 -6.22239,25.39328 -25.58322,90.84725 -31.73715,107.2951 -2.47222,6.60761 -2.69233,6.6872 -17.41672,6.29784 l -11,-0.29087 -1.83887,-5.5 c -1.01138,-3.025 -5.34122,-18.22984 -9.62187,-33.78854 -4.28065,-15.55869 -8.06566,-28.57119 -8.41113,-28.91666 -0.34547,-0.34547 -0.89009,-0.36618 -1.21025,-0.046 -0.32017,0.32017 -3.04172,9.95767 -6.04788,21.41667 -8.27183,31.53082 -12.30658,44.70426 -14.11475,46.08454 -1.79345,1.36904 -21.91148,1.77761 -23.86572,0.48469 z m 148.64565,-1.16895 c -1.41395,-2.642 -1.43565,-117.7002 -0.0224,-118.57367 0.55705,-0.34428 2.88028,0.97251 5.16272,2.9262 7.02201,6.01058 13.66083,5.98153 20.755,-0.0908 2.2908,-1.96083 4.48106,-3.24948 4.86727,-2.86366 1.21545,1.21425 1.41477,116.27047 0.20533,118.53032 -0.99838,1.86556 -2.0828,2.00587 -15.5031,2.00587 -13.2427,0 -14.51478,-0.15911 -15.46482,-1.93426 z m 1.71482,-129.75507 c -3.77356,-0.98613 -0.20199,-10.42565 5.47736,-14.47646 7.17077,-5.11456 17.52259,-2.16499 21.79528,6.21017 2.60814,5.11237 2.52749,7.57493 -0.27264,8.32533 -2.55678,0.68519 -24.33434,0.63757 -27,-0.059 z"
     id="path2879"
     inkscape:connector-curvature="0" />
</svg>
